<svg width="64" height="64" viewBox="0 0 64 64" fill="none" xmlns="http://www.w3.org/2000/svg">
<g id="Logo-Icon">
<path id="Logo" d="M49.8175 9.37138C44.9155 5.50629 38.7272 3.19995 32.0002 3.19995C16.0944 3.19995 3.2002 16.0941 3.2002 31.9999C3.2002 38.5761 5.40429 44.6375 9.11404 49.4857M54.0615 13.4857C58.2671 18.4918 60.8002 24.9501 60.8002 31.9999C60.8002 47.9058 47.906 60.7999 32.0002 60.7999C24.9503 60.7999 18.492 58.2669 13.4859 54.0612M19.344 47.4687C2.39798 27.3886 24.2007 -1.23944 37.6252 15.1249C38.0496 15.6423 38.3002 16.7 38.3002 16.7M19.8502 28.85C22.5502 14.9 33.4997 24.9608 37.6252 17.9375C37.904 17.4628 38.3002 16.7 38.3002 16.7M38.3002 16.7C40.1002 17 43.3402 18.59 41.9002 22.55M28.4002 28.4C28.5727 28.8025 28.7981 29.269 29.0651 29.75M29.0651 29.75C30.1907 31.7781 32.0002 34.2499 33.8002 32.4499C35.4202 30.86 38.8582 26.384 39.6502 21.2M29.0651 29.75C28.3935 30.2 27.3202 31.73 28.4002 34.2499M39.6502 28.4C46.5792 28.4 46.7845 33.7282 44.2402 37.5141C39.5139 44.073 35.1722 40.9863 34.7902 37.8499C34.4082 34.7136 35.2402 35.5999 36.1402 32.8999M24.3502 24.8C19.7002 30.95 14.5402 45.3199 31.1002 53.5999M36.5002 42.3499C36.2002 42.6499 36.0502 42.3499 35.6002 44.1499C35.1502 45.9499 32.4502 42.3499 32.0002 41.4499C31.7989 41.0475 31.347 37.6678 29.3002 37.8499C27.2534 38.0321 28.8502 40.0999 29.3002 41.4499C30.4725 44.9669 31.0102 49.5499 34.2502 49.5499C38.3002 49.5499 41.9002 46.3999 42.3502 44.5999M48.2002 27.95C53.1502 33.7999 49.1002 38.2999 49.1002 38.2999C49.1002 38.2999 49.1002 46.3999 41.0002 52.2499" stroke="#121112" stroke-width="1.7" stroke-linecap="round" stroke-linejoin="round"/>
</g>
</svg>
